<svg width="153" height="48" viewBox="0 0 153 48" fill="none" xmlns="http://www.w3.org/2000/svg">
<path d="M153 0H0V48H153V0Z" fill="url(#paint0_linear_1_85)"/>
<path d="M43.345 19.172V29H40.951V19.172H43.345ZM53.8719 29H51.4779L47.4739 22.938V29H45.0799V19.172H47.4739L51.4779 25.262V19.172H53.8719V29ZM59.1633 29.098C58.4446 29.098 57.8006 28.9813 57.2313 28.748C56.6619 28.5147 56.2046 28.1693 55.8593 27.712C55.5233 27.2547 55.3459 26.704 55.3273 26.06H57.8753C57.9126 26.424 58.0386 26.704 58.2533 26.9C58.4679 27.0867 58.7479 27.18 59.0933 27.18C59.4479 27.18 59.7279 27.1007 59.9333 26.942C60.1386 26.774 60.2413 26.5453 60.2413 26.256C60.2413 26.0133 60.1573 25.8127 59.9893 25.654C59.8306 25.4953 59.6299 25.3647 59.3873 25.262C59.1539 25.1593 58.8179 25.0427 58.3793 24.912C57.7446 24.716 57.2266 24.52 56.8253 24.324C56.4239 24.128 56.0786 23.8387 55.7893 23.456C55.4999 23.0733 55.3553 22.574 55.3553 21.958C55.3553 21.0433 55.6866 20.3293 56.3493 19.816C57.0119 19.2933 57.8753 19.032 58.9393 19.032C60.0219 19.032 60.8946 19.2933 61.5573 19.816C62.2199 20.3293 62.5746 21.048 62.6213 21.972H60.0313C60.0126 21.6547 59.8959 21.4073 59.6813 21.23C59.4666 21.0433 59.1913 20.95 58.8553 20.95C58.5659 20.95 58.3326 21.0293 58.1553 21.188C57.9779 21.3373 57.8893 21.5567 57.8893 21.846C57.8893 22.1633 58.0386 22.4107 58.3373 22.588C58.6359 22.7653 59.1026 22.9567 59.7373 23.162C60.3719 23.3767 60.8853 23.582 61.2773 23.778C61.6786 23.974 62.0239 24.2587 62.3133 24.632C62.6026 25.0053 62.7473 25.486 62.7473 26.074C62.7473 26.634 62.6026 27.1427 62.3133 27.6C62.0333 28.0573 61.6226 28.4213 61.0813 28.692C60.5399 28.9627 59.9006 29.098 59.1633 29.098ZM71.2905 19.172V21.09H68.6865V29H66.2925V21.09H63.6885V19.172H71.2905ZM78.61 27.264H74.942L74.354 29H71.848L75.404 19.172H78.176L81.732 29H79.198L78.61 27.264ZM77.994 25.416L76.776 21.818L75.572 25.416H77.994ZM89.3383 22.28C89.161 21.9533 88.9043 21.706 88.5683 21.538C88.2416 21.3607 87.8543 21.272 87.4063 21.272C86.6316 21.272 86.011 21.5287 85.5443 22.042C85.0776 22.546 84.8443 23.2227 84.8443 24.072C84.8443 24.9773 85.087 25.6867 85.5723 26.2C86.067 26.704 86.7436 26.956 87.6023 26.956C88.1903 26.956 88.685 26.8067 89.0863 26.508C89.497 26.2093 89.7956 25.78 89.9823 25.22H86.9443V23.456H92.1523V25.682C91.975 26.2793 91.6716 26.8347 91.2423 27.348C90.8223 27.8613 90.2856 28.2767 89.6323 28.594C88.979 28.9113 88.2416 29.07 87.4203 29.07C86.4496 29.07 85.5816 28.86 84.8163 28.44C84.0603 28.0107 83.4676 27.418 83.0383 26.662C82.6183 25.906 82.4083 25.0427 82.4083 24.072C82.4083 23.1013 82.6183 22.238 83.0383 21.482C83.4676 20.7167 84.0603 20.124 84.8163 19.704C85.5723 19.2747 86.4356 19.06 87.4063 19.06C88.5823 19.06 89.5716 19.3447 90.3743 19.914C91.1863 20.4833 91.723 21.272 91.9843 22.28H89.3383ZM98.4904 29L96.4464 25.29H95.8724V29H93.4784V19.172H97.4964C98.271 19.172 98.929 19.3073 99.4704 19.578C100.021 19.8487 100.432 20.222 100.702 20.698C100.973 21.1647 101.108 21.6873 101.108 22.266C101.108 22.9193 100.922 23.5027 100.548 24.016C100.184 24.5293 99.643 24.8933 98.9244 25.108L101.192 29H98.4904ZM95.8724 23.596H97.3564C97.795 23.596 98.1217 23.4887 98.3364 23.274C98.5604 23.0593 98.6724 22.756 98.6724 22.364C98.6724 21.9907 98.5604 21.6967 98.3364 21.482C98.1217 21.2673 97.795 21.16 97.3564 21.16H95.8724V23.596ZM108.729 27.264H105.061L104.473 29H101.967L105.523 19.172H108.295L111.851 29H109.317L108.729 27.264ZM108.113 25.416L106.895 21.818L105.691 25.416H108.113ZM124.063 19.172V29H121.669V23.106L119.471 29H117.539L115.327 23.092V29H112.933V19.172H115.761L118.519 25.976L121.249 19.172H124.063Z" fill="white"/>
<path d="M21.25 9.5H19C10.9919 9.5 4.5 15.9919 4.5 24C4.5 32.0081 10.9919 38.5 19 38.5H21.25C29.2581 38.5 35.75 32.0081 35.75 24C35.75 15.9919 29.2581 9.5 21.25 9.5Z" fill="white"/>
<path d="M27.625 16.5H14.5V31.5H27.625V16.5Z" fill="white"/>
<path d="M20.1276 20.6309C18.2643 20.6309 16.7614 22.1338 16.7614 23.9971C16.7614 25.8604 18.2643 27.3633 20.1276 27.3633C21.9909 27.3633 23.4938 25.8604 23.4938 23.9971C23.4938 22.1338 21.9909 20.6309 20.1276 20.6309ZM20.1276 26.1855C18.9235 26.1855 17.9391 25.2041 17.9391 23.9971C17.9391 22.79 18.9206 21.8086 20.1276 21.8086C21.3347 21.8086 22.3161 22.79 22.3161 23.9971C22.3161 25.2041 21.3317 26.1855 20.1276 26.1855ZM24.4167 20.4932C24.4167 20.9297 24.0651 21.2783 23.6315 21.2783C23.195 21.2783 22.8464 20.9268 22.8464 20.4932C22.8464 20.0596 23.1979 19.708 23.6315 19.708C24.0651 19.708 24.4167 20.0596 24.4167 20.4932ZM26.6462 21.29C26.5964 20.2383 26.3561 19.3066 25.5856 18.5391C24.8181 17.7715 23.8864 17.5312 22.8347 17.4785C21.7507 17.417 18.5016 17.417 17.4177 17.4785C16.3688 17.5283 15.4372 17.7686 14.6667 18.5361C13.8962 19.3037 13.6589 20.2354 13.6061 21.2871C13.5446 22.3711 13.5446 25.6201 13.6061 26.7041C13.6559 27.7559 13.8962 28.6875 14.6667 29.4551C15.4372 30.2227 16.3659 30.4629 17.4177 30.5156C18.5016 30.5771 21.7507 30.5771 22.8347 30.5156C23.8864 30.4658 24.8181 30.2256 25.5856 29.4551C26.3532 28.6875 26.5934 27.7559 26.6462 26.7041C26.7077 25.6201 26.7077 22.374 26.6462 21.29ZM25.2458 27.8672C25.0173 28.4414 24.5749 28.8838 23.9977 29.1152C23.1335 29.458 21.0827 29.3789 20.1276 29.3789C19.1725 29.3789 17.1188 29.4551 16.2575 29.1152C15.6833 28.8867 15.2409 28.4443 15.0095 27.8672C14.6667 27.0029 14.7458 24.9521 14.7458 23.9971C14.7458 23.042 14.6696 20.9883 15.0095 20.127C15.238 19.5527 15.6804 19.1104 16.2575 18.8789C17.1218 18.5361 19.1725 18.6152 20.1276 18.6152C21.0827 18.6152 23.1364 18.5391 23.9977 18.8789C24.572 19.1074 25.0143 19.5498 25.2458 20.127C25.5886 20.9912 25.5095 23.042 25.5095 23.9971C25.5095 24.9521 25.5886 27.0059 25.2458 27.8672Z" fill="url(#paint1_linear_1_85)"/>
<defs>
<linearGradient id="paint0_linear_1_85" x1="164" y1="1.50001" x2="4.38857e-06" y2="48" gradientUnits="userSpaceOnUse">
<stop stop-color="#334FFF"/>
<stop offset="0.235416" stop-color="#C838F6"/>
<stop offset="0.490625" stop-color="#FF1F7A"/>
<stop offset="0.751041" stop-color="#FF8534"/>
<stop offset="1" stop-color="#FFBD28"/>
</linearGradient>
<linearGradient id="paint1_linear_1_85" x1="30.5" y1="17" x2="7.99999" y2="32.5" gradientUnits="userSpaceOnUse">
<stop stop-color="#334FFF"/>
<stop offset="0.25625" stop-color="#C838F6"/>
<stop offset="0.490625" stop-color="#FF1F7A"/>
<stop offset="0.740625" stop-color="#FF8534"/>
<stop offset="0.9999" stop-color="#0F174B" stop-opacity="0.295834"/>
<stop offset="1" stop-color="#FFBD28"/>
</linearGradient>
</defs>
</svg>
