<svg width="105" height="48" viewBox="0 0 105 48" fill="none" xmlns="http://www.w3.org/2000/svg">
<path d="M105 0H0V48H105V0Z" fill="#CD6799"/>
<path d="M44.8429 29.098C44.1243 29.098 43.4803 28.9813 42.9109 28.748C42.3416 28.5147 41.8843 28.1693 41.5389 27.712C41.2029 27.2547 41.0256 26.704 41.0069 26.06H43.5549C43.5923 26.424 43.7183 26.704 43.9329 26.9C44.1476 27.0867 44.4276 27.18 44.7729 27.18C45.1276 27.18 45.4076 27.1007 45.6129 26.942C45.8183 26.774 45.9209 26.5453 45.9209 26.256C45.9209 26.0133 45.8369 25.8127 45.6689 25.654C45.5103 25.4953 45.3096 25.3647 45.0669 25.262C44.8336 25.1593 44.4976 25.0427 44.0589 24.912C43.4243 24.716 42.9063 24.52 42.5049 24.324C42.1036 24.128 41.7583 23.8387 41.4689 23.456C41.1796 23.0733 41.0349 22.574 41.0349 21.958C41.0349 21.0433 41.3663 20.3293 42.0289 19.816C42.6916 19.2933 43.5549 19.032 44.6189 19.032C45.7016 19.032 46.5743 19.2933 47.2369 19.816C47.8996 20.3293 48.2543 21.048 48.3009 21.972H45.7109C45.6923 21.6547 45.5756 21.4073 45.3609 21.23C45.1463 21.0433 44.8709 20.95 44.5349 20.95C44.2456 20.95 44.0123 21.0293 43.8349 21.188C43.6576 21.3373 43.5689 21.5567 43.5689 21.846C43.5689 22.1633 43.7183 22.4107 44.0169 22.588C44.3156 22.7653 44.7823 22.9567 45.4169 23.162C46.0516 23.3767 46.5649 23.582 46.9569 23.778C47.3583 23.974 47.7036 24.2587 47.9929 24.632C48.2823 25.0053 48.4269 25.486 48.4269 26.074C48.4269 26.634 48.2823 27.1427 47.9929 27.6C47.7129 28.0573 47.3023 28.4213 46.7609 28.692C46.2196 28.9627 45.5803 29.098 44.8429 29.098ZM56.0182 27.264H52.3502L51.7622 29H49.2562L52.8122 19.172H55.5842L59.1402 29H56.6062L56.0182 27.264ZM55.4022 25.416L54.1842 21.818L52.9802 25.416H55.4022ZM63.7785 29.098C63.0598 29.098 62.4158 28.9813 61.8465 28.748C61.2772 28.5147 60.8198 28.1693 60.4745 27.712C60.1385 27.2547 59.9612 26.704 59.9425 26.06H62.4905C62.5278 26.424 62.6538 26.704 62.8685 26.9C63.0832 27.0867 63.3632 27.18 63.7085 27.18C64.0632 27.18 64.3432 27.1007 64.5485 26.942C64.7538 26.774 64.8565 26.5453 64.8565 26.256C64.8565 26.0133 64.7725 25.8127 64.6045 25.654C64.4458 25.4953 64.2452 25.3647 64.0025 25.262C63.7692 25.1593 63.4332 25.0427 62.9945 24.912C62.3598 24.716 61.8418 24.52 61.4405 24.324C61.0392 24.128 60.6938 23.8387 60.4045 23.456C60.1152 23.0733 59.9705 22.574 59.9705 21.958C59.9705 21.0433 60.3018 20.3293 60.9645 19.816C61.6272 19.2933 62.4905 19.032 63.5545 19.032C64.6372 19.032 65.5098 19.2933 66.1725 19.816C66.8352 20.3293 67.1898 21.048 67.2365 21.972H64.6465C64.6278 21.6547 64.5112 21.4073 64.2965 21.23C64.0818 21.0433 63.8065 20.95 63.4705 20.95C63.1812 20.95 62.9478 21.0293 62.7705 21.188C62.5932 21.3373 62.5045 21.5567 62.5045 21.846C62.5045 22.1633 62.6538 22.4107 62.9525 22.588C63.2512 22.7653 63.7178 22.9567 64.3525 23.162C64.9872 23.3767 65.5005 23.582 65.8925 23.778C66.2938 23.974 66.6392 24.2587 66.9285 24.632C67.2178 25.0053 67.3625 25.486 67.3625 26.074C67.3625 26.634 67.2178 27.1427 66.9285 27.6C66.6485 28.0573 66.2378 28.4213 65.6965 28.692C65.1552 28.9627 64.5158 29.098 63.7785 29.098ZM72.3918 29.098C71.6731 29.098 71.0291 28.9813 70.4598 28.748C69.8904 28.5147 69.4331 28.1693 69.0878 27.712C68.7518 27.2547 68.5744 26.704 68.5558 26.06H71.1038C71.1411 26.424 71.2671 26.704 71.4818 26.9C71.6964 27.0867 71.9764 27.18 72.3218 27.18C72.6764 27.18 72.9564 27.1007 73.1618 26.942C73.3671 26.774 73.4698 26.5453 73.4698 26.256C73.4698 26.0133 73.3858 25.8127 73.2178 25.654C73.0591 25.4953 72.8584 25.3647 72.6158 25.262C72.3824 25.1593 72.0464 25.0427 71.6078 24.912C70.9731 24.716 70.4551 24.52 70.0538 24.324C69.6524 24.128 69.3071 23.8387 69.0178 23.456C68.7284 23.0733 68.5838 22.574 68.5838 21.958C68.5838 21.0433 68.9151 20.3293 69.5778 19.816C70.2404 19.2933 71.1038 19.032 72.1678 19.032C73.2504 19.032 74.1231 19.2933 74.7858 19.816C75.4484 20.3293 75.8031 21.048 75.8498 21.972H73.2598C73.2411 21.6547 73.1244 21.4073 72.9098 21.23C72.6951 21.0433 72.4198 20.95 72.0838 20.95C71.7944 20.95 71.5611 21.0293 71.3838 21.188C71.2064 21.3373 71.1178 21.5567 71.1178 21.846C71.1178 22.1633 71.2671 22.4107 71.5658 22.588C71.8644 22.7653 72.3311 22.9567 72.9658 23.162C73.6004 23.3767 74.1138 23.582 74.5058 23.778C74.9071 23.974 75.2524 24.2587 75.5418 24.632C75.8311 25.0053 75.9758 25.486 75.9758 26.074C75.9758 26.634 75.8311 27.1427 75.5418 27.6C75.2618 28.0573 74.8511 28.4213 74.3098 28.692C73.7684 28.9627 73.1291 29.098 72.3918 29.098Z" fill="white"/>
<path d="M21.25 9.5H19C10.9919 9.5 4.5 15.9919 4.5 24C4.5 32.0081 10.9919 38.5 19 38.5H21.25C29.2581 38.5 35.75 32.0081 35.75 24C35.75 15.9919 29.2581 9.5 21.25 9.5Z" fill="white"/>
<path d="M19.5929 27.6013C19.5753 27.6329 19.5841 27.6189 19.5929 27.6013ZM26.8916 25.0525C26.3024 25.0523 25.721 25.1876 25.1924 25.448C25.0195 25.0993 24.8408 24.7947 24.8115 24.5661C24.7764 24.2995 24.7383 24.1413 24.7793 23.8249C24.8203 23.5085 25.0049 23.0603 25.0019 23.028C24.999 22.9958 24.9609 22.8347 24.583 22.8318C24.2051 22.8288 23.8799 22.905 23.8421 23.0046C23.7753 23.1866 23.7234 23.3738 23.6868 23.5642C23.6194 23.907 22.9312 25.1316 22.5416 25.7702C22.4127 25.5212 22.3043 25.3015 22.2809 25.1257C22.2457 24.8591 22.2076 24.7009 22.2486 24.3845C22.2896 24.0681 22.4742 23.6198 22.4713 23.5876C22.4684 23.5554 22.4303 23.3943 22.0526 23.3913C21.675 23.3884 21.3495 23.4646 21.3114 23.5642C21.2733 23.6638 21.2323 23.8982 21.1561 24.1238C21.08 24.3493 20.1633 26.3884 19.9233 26.9187C19.8003 27.1882 19.6948 27.405 19.6186 27.5515C19.6069 27.5749 19.5987 27.5896 19.5929 27.6013C19.6017 27.5866 19.6069 27.572 19.6069 27.5779C19.5425 27.7038 19.5044 27.7741 19.5044 27.7741V27.7771C19.4546 27.8708 19.3989 27.9558 19.3726 27.9558C19.355 27.9558 19.3169 27.7097 19.3813 27.3728C19.519 26.6638 19.8442 25.5622 19.8413 25.5241C19.8384 25.5036 19.9028 25.3132 19.6274 25.2107C19.3608 25.114 19.2642 25.2751 19.2407 25.2751C19.2173 25.2751 19.1997 25.3337 19.1997 25.3337C19.1997 25.3337 19.4956 24.0915 18.6316 24.0915C18.0926 24.0915 17.3426 24.6833 16.974 25.2195C16.7426 25.3454 16.2416 25.6179 15.7143 25.9079C15.5121 26.0193 15.3041 26.1335 15.1078 26.2419C15.0932 26.2273 15.0814 26.2126 15.0668 26.198C14.0183 25.0788 12.0823 24.2878 12.1643 22.7849C12.1936 22.237 12.3841 20.7986 15.8871 19.0525C18.7582 17.6228 21.0536 18.0154 21.4488 18.8884C22.0172 20.1335 20.2216 22.4509 17.24 22.7849C16.1036 22.9109 15.5062 22.4714 15.3568 22.3073C15.2016 22.1345 15.1781 22.1257 15.1195 22.1579C15.0228 22.2107 15.0844 22.363 15.1195 22.4538C15.2074 22.6853 15.5736 23.0954 16.1974 23.3005C16.7452 23.4792 18.0776 23.5788 19.6887 22.9548C21.4986 22.2575 22.9075 20.3152 22.4944 18.6892C22.0737 17.0368 19.3339 16.4948 16.7432 17.4148C15.1995 17.9626 13.5302 18.8239 12.3293 19.946C10.9028 21.282 10.6746 22.445 10.7684 22.9314C11.102 24.657 13.4804 25.782 14.4322 26.614C14.3853 26.6404 14.3414 26.6638 14.3004 26.6872C13.8231 26.9245 12.01 27.8738 11.5561 28.8757C11.0435 30.0124 11.6411 30.8269 12.0334 30.9382C13.2577 31.278 14.5113 30.6657 15.1849 29.6609C15.8584 28.656 15.7767 27.3435 15.4661 26.7458C15.4632 26.737 15.4573 26.7312 15.4544 26.7224C15.5774 26.6491 15.7034 26.5759 15.8294 26.5027C16.0723 26.3591 16.3096 26.2273 16.5176 26.113C16.4004 26.4294 16.3154 26.8103 16.2715 27.3611C16.2187 28.0056 16.4853 28.8405 16.831 29.1687C16.9834 29.3122 17.1677 29.3152 17.2819 29.3152C17.6862 29.3152 17.8679 28.9812 18.0697 28.5827C18.3187 28.0964 18.5385 27.531 18.5385 27.531C18.5385 27.531 18.2631 29.0603 19.016 29.0603C19.2911 29.0603 19.5665 28.7058 19.6898 28.5241V28.5271C19.6898 28.5271 19.6957 28.5154 19.7103 28.4919C19.7396 28.448 19.7543 28.4216 19.7543 28.4216V28.4128C19.8656 28.2224 20.1088 27.7859 20.4747 27.0652C20.9493 26.1335 21.4031 24.9704 21.4031 24.9704C21.447 25.2261 21.5076 25.4786 21.5848 25.7263C21.6668 26.0046 21.8396 26.3093 21.9773 26.6052C21.866 26.7575 21.7986 26.8454 21.7986 26.8454C21.7988 26.8477 21.7999 26.8498 21.8016 26.8513C21.7137 26.9685 21.6141 27.0945 21.5115 27.2175C21.1368 27.6628 20.6912 28.1726 20.6326 28.3191C20.5623 28.4919 20.5799 28.6208 20.7146 28.7204C20.8143 28.7966 20.99 28.8083 21.1743 28.7937C21.5112 28.7702 21.7485 28.6882 21.8628 28.6355C22.0734 28.5599 22.2725 28.4554 22.4543 28.3249C22.8205 28.0554 23.0432 27.6687 23.0227 27.1589C23.0109 26.8777 22.9201 26.5964 22.8088 26.3327C22.841 26.2859 22.8762 26.2361 22.9084 26.1863C23.4882 25.3396 23.9364 24.4103 23.9364 24.4103C23.9803 24.666 24.041 24.9185 24.1181 25.1661C24.1884 25.4034 24.3258 25.6642 24.4518 25.9191C23.9071 26.3614 23.5702 26.8741 23.453 27.2111C23.2362 27.8351 23.4061 28.1163 23.7255 28.1808C23.869 28.2101 24.0741 28.1427 24.2265 28.0782C24.4527 28.0029 24.666 27.8932 24.859 27.753C25.2252 27.4835 25.5794 27.1056 25.556 26.5929C25.5472 26.3614 25.4827 26.13 25.3977 25.9073C25.8577 25.714 26.4551 25.6085 27.2168 25.6964C28.848 25.8868 29.1674 26.9064 29.1059 27.3312C29.0443 27.756 28.7016 27.9933 28.5873 28.0636C28.473 28.1339 28.4379 28.1603 28.4467 28.213C28.4613 28.2892 28.5141 28.2863 28.6107 28.2687C28.7455 28.2452 29.4659 27.923 29.4981 27.1349C29.545 26.1388 28.5873 25.0431 26.8907 25.0519L26.8916 25.0525ZM14.318 29.2917C13.7792 29.8806 13.0233 30.1032 12.6984 29.9157C12.3498 29.713 12.4875 28.8464 13.1522 28.2189C13.5565 27.838 14.0777 27.4864 14.4234 27.2697C14.5025 27.2228 14.6168 27.1525 14.7574 27.0675C14.7809 27.0529 14.7926 27.047 14.7926 27.047C14.8189 27.0294 14.8482 27.0148 14.8775 26.9972C15.1204 27.8878 14.8863 28.6736 14.318 29.2917ZM18.2543 26.614C18.0668 27.0739 17.6716 28.2458 17.4313 28.1843C17.2263 28.1316 17.1003 27.238 17.3903 26.3591C17.5368 25.9167 17.8474 25.3894 18.0319 25.1843C18.3275 24.8532 18.6527 24.7478 18.7289 24.8796C18.8314 25.0525 18.3715 26.3269 18.2543 26.614ZM21.5062 28.1667C21.4271 28.2077 21.3539 28.2341 21.3187 28.2136C21.2924 28.1989 21.351 28.1433 21.351 28.1433C21.351 28.1433 21.7582 27.7068 21.9193 27.5075C22.0131 27.3904 22.1215 27.2527 22.2384 27.1003C22.2384 27.115 22.2413 27.1296 22.2413 27.1472C22.2375 27.6716 21.7347 28.0261 21.5062 28.1667ZM24.0135 27.5954C23.9549 27.5544 23.9637 27.4167 24.16 26.989C24.2361 26.822 24.4116 26.5407 24.7166 26.2712C24.7511 26.3732 24.7699 26.4799 24.7723 26.5876C24.7693 27.2468 24.2973 27.4929 24.0135 27.5954Z" fill="#CD6799"/>
</svg>
