<svg width="120" height="48" viewBox="0 0 120 48" fill="none" xmlns="http://www.w3.org/2000/svg">
<path d="M120 0H0V48H120V0Z" fill="#010101"/>
<path d="M48.3374 19.172V21.09H45.7334V29H43.3394V21.09H40.7354V19.172H48.3374ZM51.9329 19.172V29H49.5389V19.172H51.9329ZM59.3658 29L56.0618 24.66V29H53.6678V19.172H56.0618V23.484L59.3378 19.172H62.1518L58.3438 23.988L62.2918 29H59.3658ZM70.4995 19.172V21.09H67.8955V29H65.5015V21.09H62.8975V19.172H70.4995ZM76.349 29.098C75.425 29.098 74.5757 28.8833 73.801 28.454C73.0357 28.0247 72.4243 27.4273 71.967 26.662C71.519 25.8873 71.295 25.0193 71.295 24.058C71.295 23.0967 71.519 22.2333 71.967 21.468C72.4243 20.7027 73.0357 20.1053 73.801 19.676C74.5757 19.2467 75.425 19.032 76.349 19.032C77.273 19.032 78.1177 19.2467 78.883 19.676C79.6577 20.1053 80.2643 20.7027 80.703 21.468C81.151 22.2333 81.375 23.0967 81.375 24.058C81.375 25.0193 81.151 25.8873 80.703 26.662C80.255 27.4273 79.6483 28.0247 78.883 28.454C78.1177 28.8833 77.273 29.098 76.349 29.098ZM76.349 26.914C77.133 26.914 77.7583 26.6527 78.225 26.13C78.701 25.6073 78.939 24.9167 78.939 24.058C78.939 23.19 78.701 22.4993 78.225 21.986C77.7583 21.4633 77.133 21.202 76.349 21.202C75.5557 21.202 74.921 21.4587 74.445 21.972C73.9783 22.4853 73.745 23.1807 73.745 24.058C73.745 24.926 73.9783 25.6213 74.445 26.144C74.921 26.6573 75.5557 26.914 76.349 26.914ZM88.4049 29L85.1009 24.66V29H82.7069V19.172H85.1009V23.484L88.3769 19.172H91.1909L87.3829 23.988L91.3309 29H88.4049Z" fill="white"/>
<path d="M21.25 9.5H19C10.9919 9.5 4.5 15.9919 4.5 24C4.5 32.0081 10.9919 38.5 19 38.5H21.25C29.2581 38.5 35.75 32.0081 35.75 24C35.75 15.9919 29.2581 9.5 21.25 9.5Z" fill="white"/>
<path d="M26.6812 22.6497C25.3914 22.6528 24.1332 22.2506 23.0844 21.4998V26.7357C23.0841 27.7055 22.7877 28.652 22.2348 29.4488C21.682 30.2455 20.8991 30.8545 19.9908 31.1943C19.0826 31.5341 18.0922 31.5885 17.1522 31.3502C16.2121 31.112 15.3673 30.5924 14.7305 29.861C14.0937 29.1296 13.6954 28.2212 13.5888 27.2573C13.4823 26.2935 13.6725 25.32 14.1341 24.4672C14.5957 23.6143 15.3067 22.9227 16.172 22.4849C17.0372 22.047 18.0155 21.8837 18.9761 22.0169V24.6504C18.5366 24.5121 18.0646 24.5163 17.6275 24.6623C17.1905 24.8083 16.8107 25.0886 16.5425 25.4633C16.2743 25.838 16.1313 26.2879 16.1341 26.7487C16.1368 27.2094 16.285 27.6576 16.5576 28.0291C16.8302 28.4006 17.2132 28.6765 17.652 28.8173C18.0907 28.9581 18.5627 28.9568 19.0006 28.8133C19.4385 28.6699 19.8199 28.3918 20.0903 28.0187C20.3607 27.6455 20.5063 27.1965 20.5063 26.7357V16.5H23.0844C23.0826 16.7177 23.1009 16.9351 23.1389 17.1495C23.2285 17.6281 23.4148 18.0833 23.6863 18.4874C23.9579 18.8915 24.309 19.236 24.7183 19.4997C25.3005 19.8847 25.9832 20.0899 26.6812 20.0897V22.6497Z" fill="#010101"/>
</svg>
